REM DIRINDEX 1\2,1\3
REM DIRNAME cjc102,folder01,folder02
TITLE ""
FILE "CD1Track22.mp3" MP3
  TRACK 01 AUDIO
    TITLE "0:"
    INDEX 01 00:00:00
  TRACK 02 AUDIO
    TITLE "2:cjc102_0920"
    INDEX 01 00:00:27
  TRACK 03 AUDIO
    TITLE "0:"
    INDEX 01 00:01:30
  TRACK 04 AUDIO
    TITLE "3:cjc102_0921"
    INDEX 01 00:01:36
  TRACK 05 AUDIO
    TITLE "0:"
    INDEX 01 00:02:69
  TRACK 06 AUDIO
    TITLE "3:cjc102_0922"
    INDEX 01 00:04:15
  TRACK 07 AUDIO
    TITLE "0:"
    INDEX 01 00:09:00
  TRACK 08 AUDIO
    TITLE "2:cjc102_0923"
    INDEX 01 00:09:06
  TRACK 09 AUDIO
    TITLE "0:"
    INDEX 01 00:10:16
  TRACK 10 AUDIO
    TITLE "3:cjc102_0924"
    INDEX 01 00:10:37
  TRACK 11 AUDIO
    TITLE "0:"
    INDEX 01 00:11:17
  TRACK 12 AUDIO
    TITLE "2:cjc102_0925"
    INDEX 01 00:11:31
  TRACK 13 AUDIO
    TITLE "0:"
    INDEX 01 00:12:22
  TRACK 14 AUDIO
    TITLE "3:cjc102_0926"
    INDEX 01 00:13:26
  TRACK 15 AUDIO
    TITLE "0:"
    INDEX 01 00:14:11
  TRACK 16 AUDIO
    TITLE "2:cjc102_0927"
    INDEX 01 00:14:21
  TRACK 17 AUDIO
    TITLE "0:"
    INDEX 01 00:15:28
  TRACK 18 AUDIO
    TITLE "3:cjc102_0928"
    INDEX 01 00:17:12
  TRACK 19 AUDIO
    TITLE "0:"
    INDEX 01 00:18:03
  TRACK 20 AUDIO
    TITLE "2:cjc102_0929"
    INDEX 01 00:18:05
  TRACK 21 AUDIO
    TITLE "0:"
    INDEX 01 00:19:01
  TRACK 22 AUDIO
    TITLE "3:cjc102_0930"
    INDEX 01 00:20:47
  TRACK 23 AUDIO
    TITLE "0:"
    INDEX 01 00:21:27
  TRACK 24 AUDIO
    TITLE "2:cjc102_0931"
    INDEX 01 00:21:29
  TRACK 25 AUDIO
    TITLE "0:"
    INDEX 01 00:22:27
  TRACK 26 AUDIO
    TITLE "3:cjc102_0932"
    INDEX 01 00:23:73
  TRACK 27 AUDIO
    TITLE "0:"
    INDEX 01 00:24:49
  TRACK 28 AUDIO
    TITLE "2:cjc102_0933"
    INDEX 01 00:24:51
  TRACK 29 AUDIO
    TITLE "0:"
    INDEX 01 00:25:48
  TRACK 30 AUDIO
    TITLE "3:cjc102_0934"
    INDEX 01 00:26:64
  TRACK 31 AUDIO
    TITLE "0:"
    INDEX 01 00:27:61
  TRACK 32 AUDIO
    TITLE "2:cjc102_0935"
    INDEX 01 00:27:67
  TRACK 33 AUDIO
    TITLE "0:"
    INDEX 01 00:28:68
  TRACK 34 AUDIO
    TITLE "3:cjc102_0936"
    INDEX 01 00:30:14
  TRACK 35 AUDIO
    TITLE "0:"
    INDEX 01 00:31:08
  TRACK 36 AUDIO
    TITLE "2:cjc102_0937"
    INDEX 01 00:31:53
  TRACK 37 AUDIO
    TITLE "0:"
    INDEX 01 00:32:52
  TRACK 38 AUDIO
    TITLE "3:cjc102_0938"
    INDEX 01 00:33:52
  TRACK 39 AUDIO
    TITLE "0:"
    INDEX 01 00:34:49
  TRACK 40 AUDIO
    TITLE "2:cjc102_0939"
    INDEX 01 00:34:73
  TRACK 41 AUDIO
    TITLE "0:"
    INDEX 01 00:36:03
  TRACK 42 AUDIO
    TITLE "3:cjc102_0940"
    INDEX 01 00:37:03
  TRACK 43 AUDIO
    TITLE "0:"
    INDEX 01 00:37:69
  TRACK 44 AUDIO
    TITLE "2:cjc102_0941"
    INDEX 01 00:37:71
  TRACK 45 AUDIO
    TITLE "0:"
    INDEX 01 00:38:69
  TRACK 46 AUDIO
    TITLE "3:cjc102_0942"
    INDEX 01 00:39:31
  TRACK 47 AUDIO
    TITLE "0:"
    INDEX 01 00:40:26
  TRACK 48 AUDIO
    TITLE "2:cjc102_0943"
    INDEX 01 00:40:44
  TRACK 49 AUDIO
    TITLE "0:"
    INDEX 01 00:41:45
  TRACK 50 AUDIO
    TITLE "3:cjc102_0944"
    INDEX 01 00:42:12
  TRACK 51 AUDIO
    TITLE "0:"
    INDEX 01 00:43:25
  TRACK 52 AUDIO
    TITLE "2:cjc102_0945"
    INDEX 01 00:43:27
  TRACK 53 AUDIO
    TITLE "0:"
    INDEX 01 00:44:18
  TRACK 54 AUDIO
    TITLE "3:cjc102_0946"
    INDEX 01 00:44:56
  TRACK 55 AUDIO
    TITLE "0:"
    INDEX 01 00:45:67
  TRACK 56 AUDIO
    TITLE "2:cjc102_0947"
    INDEX 01 00:46:13
  TRACK 57 AUDIO
    TITLE "0:"
    INDEX 01 00:47:15
  TRACK 58 AUDIO
    TITLE "3:cjc102_0948"
    INDEX 01 00:47:44
  TRACK 59 AUDIO
    TITLE "0:"
    INDEX 01 00:48:65
  TRACK 60 AUDIO
    TITLE "2:cjc102_0949"
    INDEX 01 00:49:16
  TRACK 61 AUDIO
    TITLE "0:"
    INDEX 01 00:50:17
  TRACK 62 AUDIO
    TITLE "3:cjc102_0950"
    INDEX 01 00:50:33
  TRACK 63 AUDIO
    TITLE "0:"
    INDEX 01 00:51:50
  TRACK 64 AUDIO
    TITLE "2:cjc102_0951"
    INDEX 01 00:52:12
  TRACK 65 AUDIO
    TITLE "0:"
    INDEX 01 00:53:06
  TRACK 66 AUDIO
    TITLE "3:cjc102_0952"
    INDEX 01 00:54:09
  TRACK 67 AUDIO
    TITLE "0:"
    INDEX 01 00:55:18
  TRACK 68 AUDIO
    TITLE "2:cjc102_0953"
    INDEX 01 00:56:00
  TRACK 69 AUDIO
    TITLE "0:"
    INDEX 01 00:58:36
  TRACK 70 AUDIO
    TITLE "3:cjc102_0954"
    INDEX 01 00:59:30
  TRACK 71 AUDIO
    TITLE "0:"
    INDEX 01 01:00:41
  TRACK 72 AUDIO
    TITLE "2:cjc102_0955"
    INDEX 01 01:00:64
  TRACK 73 AUDIO
    TITLE "0:"
    INDEX 01 01:03:71
  TRACK 74 AUDIO
    TITLE "3:cjc102_0956"
    INDEX 01 01:05:03
  TRACK 75 AUDIO
    TITLE "0:"
    INDEX 01 01:06:22
  TRACK 76 AUDIO
    TITLE "2:cjc102_0957"
    INDEX 01 01:06:24
  TRACK 77 AUDIO
    TITLE "0:"
    INDEX 01 01:10:47
